<?xml version="1.0" encoding="UTF-8" standalone="no"?>
<!-- Created with Inkscape (http://www.inkscape.org/) -->

<svg
   xmlns:dc="http://purl.org/dc/elements/1.1/"
   xmlns:cc="http://creativecommons.org/ns#"
   xmlns:rdf="http://www.w3.org/1999/02/22-rdf-syntax-ns#"
   xmlns:svg="http://www.w3.org/2000/svg"
   xmlns="http://www.w3.org/2000/svg"
   xmlns:sodipodi="http://sodipodi.sourceforge.net/DTD/sodipodi-0.dtd"
   xmlns:inkscape="http://www.inkscape.org/namespaces/inkscape"
   width="250"
   height="250"
   id="svg4808"
   version="1.1"
   inkscape:version="0.48.3.1 r9886"
   sodipodi:docname="Nou document 6">
  <defs
     id="defs4810" />
  <sodipodi:namedview
     id="base"
     pagecolor="#ffffff"
     bordercolor="#666666"
     borderopacity="1.0"
     inkscape:pageopacity="0.0"
     inkscape:pageshadow="2"
     inkscape:zoom="1.4"
     inkscape:cx="139.77273"
     inkscape:cy="183.57314"
     inkscape:document-units="px"
     inkscape:current-layer="capa1"
     showgrid="false"
     inkscape:window-width="928"
     inkscape:window-height="699"
     inkscape:window-x="1"
     inkscape:window-y="59"
     inkscape:window-maximized="0" />
  <metadata
     id="metadata4813">
    <rdf:RDF>
      <cc:Work
         rdf:about="">
        <dc:format>image/svg+xml</dc:format>
        <dc:type
           rdf:resource="http://purl.org/dc/dcmitype/StillImage" />
        <dc:title></dc:title>
      </cc:Work>
    </rdf:RDF>
  </metadata>
  <g
     inkscape:label="Capa 1"
     inkscape:groupmode="layer"
     id="capa1"
     transform="translate(0,-802.36218)">
    <g
       id="g4843"
       transform="matrix(0.9559853,0,0,0.9559853,18.428949,38.544588)">
      <path
         inkscape:connector-curvature="0"
         id="path4657"
         d="m 74.675273,867.99028 c -1.339534,0.33122 -2.645213,0.72581 -3.906692,1.18157 -13.66807,4.96517 -31.378544,3.56264 -39.640948,17.63545 -7.48503,12.74888 -0.953451,23.45811 2.731516,36.06167 1.816622,6.2327 4.385082,12.75019 5.651553,19.10365 1.107971,5.53396 0.562811,11.21035 1.231602,16.78732 0.824902,6.92025 2.925751,13.64575 4.421831,20.46139 2.723848,12.40873 4.948472,23.59117 16.325727,31.24917 7.966602,5.3526 17.209079,8.1207 26.806026,6.452 4.822816,-0.8451 9.296444,-2.8811 13.997072,-4.1372 7.01337,-1.8599 14.42498,-1.623 21.34937,-3.6449 6.34255,-1.8514 11.97138,-5.5566 18.35994,-7.2473 9.00484,-2.37175 18.22395,-0.079 27.17287,-3.5808 16.23856,-6.34099 25.38475,-25.21359 21.28158,-41.9114 -1.78335,-7.2972 -6.65405,-13.40258 -8.49194,-20.65576 -1.40985,-5.59584 -0.68652,-11.77432 -1.38663,-17.49391 -0.52187,-4.27441 -2.25617,-8.20148 -3.35198,-12.31785 -2.75966,-10.3826 -1.19753,-22.18731 -8.6987,-30.77092 -2.58191,-2.9572 -5.77634,-4.99626 -9.05417,-7.08525 -9.27416,-5.90917 -23.60755,-13.88362 -35.04109,-10.75449 -7.76535,2.13172 -13.44149,9.19423 -21.25727,10.70697 -5.306411,1.02597 -10.923312,-0.65252 -16.21005,-1.09382 -3.998927,-0.33957 -8.271158,0.0607 -12.289834,1.05445 z m 4.467334,8.64758 c 5.500432,-1.08738 11.503706,0.61344 16.403782,2.92602 3.490444,1.6472 7.814831,4.62105 11.829961,4.2309 7.52742,-0.73398 10.07107,-11.33407 15.93531,-15.02403 9.21498,-5.79236 22.84941,3.04794 30.75525,7.78382 2.53482,1.52592 5.00164,3.46423 6.94421,5.69683 4.64153,5.33494 3.55656,11.79086 4.51834,18.26459 1.02666,6.86531 4.87801,12.88781 5.7087,19.78546 0.76529,6.35668 -1.52589,12.95989 0.30101,19.19033 3.0446,10.41617 11.92494,16.69063 10.10427,28.63394 -1.42482,9.3683 -8.35999,18.34669 -17.20582,21.78345 -8.38249,3.26032 -17.05912,-0.82896 -25.47525,1.40289 -5.32551,1.42528 -9.62393,5.4457 -14.6875,7.52897 -6.06245,2.49477 -12.31674,1.73647 -18.5672,3.03417 -13.359251,2.7723 -23.876517,9.9038 -37.054262,1.5838 -10.670411,-6.72394 -12.479076,-16.56554 -14.20057,-28.10506 -0.781714,-5.26387 -3.374626,-10.14262 -4.018169,-15.45816 -0.753357,-6.15642 0.561147,-12.32786 -0.19004,-18.47407 -0.825191,-6.8241 -5.007936,-13.21895 -6.492803,-19.98364 -2.026121,-9.23015 -9.47744,-18.73299 -4.294367,-28.10401 5.458186,-9.86922 14.443998,-8.73431 23.999638,-11.07748 4.567887,-1.13084 9.013735,-3.40665 13.440269,-4.98699 0.378848,-0.13458 0.760301,-0.26295 1.14595,-0.36729 0.361777,-0.0978 0.732523,-0.1919 1.099291,-0.2644 z m 49.046263,-2.20258 c -9.23416,2.59294 -5.01676,16.80023 4.16886,14.03638 9.0023,-2.7236 4.8736,-16.57659 -4.16886,-14.03638 z m -78.126178,17.86694 c -9.233796,2.59289 -5.01177,16.82229 4.173775,14.05847 9.00245,-2.72364 4.868753,-16.59869 -4.173775,-14.05847 z m 30.87375,-4.85609 c -0.8066,0.16189 -1.608353,0.40816 -2.385221,0.73189 -2.328578,0.97033 -4.375606,2.43162 -5.898813,4.44253 -2.591826,3.42015 -4.390363,7.33355 -3.909369,11.71303 1.083809,9.94956 12.493183,16.09502 21.485072,12.15633 2.124794,-0.92559 3.810479,-2.46597 5.219171,-4.27019 2.867228,-3.67282 4.48853,-8.06917 3.59324,-12.73144 -1.533914,-7.86988 -10.306249,-13.60689 -18.10408,-12.04215 z m 1.975265,8.89375 c 7.181126,-1.29473 10.426407,9.81723 3.011548,12.13798 -7.825032,2.44381 -11.613664,-9.71401 -3.713326,-11.9608 0.239376,-0.0682 0.470071,-0.1354 0.701778,-0.17715 z m 64.792473,-12.39415 c -9.23387,2.5929 -5.01677,16.80024 4.169,14.03636 9.00209,-2.72355 4.8736,-16.57659 -4.169,-14.03636 z m -24.78273,14.25819 c -0.57547,0.14803 -1.14118,0.34468 -1.7228,0.58649 -8.59155,3.57315 -12.64372,14.59643 -7.50753,22.52452 2.77652,4.28137 7.77462,5.87344 12.0577,8.11551 8.13457,4.2692 15.98673,12.39762 25.73755,8.12147 7.91003,-3.46627 11.5317,-14.35032 6.97329,-21.68976 -2.71292,-4.38076 -7.39171,-6.05186 -11.75082,-8.29861 -7.21621,-3.73195 -15.15467,-11.5805 -23.78739,-9.35962 z M 57.890907,916.3671 c -9.233941,2.5929 -5.01206,16.82235 4.173775,14.05845 9.002015,-2.72354 4.868752,-16.59867 -4.173775,-14.05845 z m 66.939763,-9.25493 c 7.66812,-2.18514 11.3719,9.58731 3.71817,11.98286 -7.8251,2.44384 -11.61844,-9.7361 -3.71817,-11.98286 z m -34.083152,21.76188 c -0.556084,0.14511 -1.117232,0.34342 -1.678596,0.57677 -4.091017,1.69892 -7.02299,5.28093 -10.634893,7.75034 -7.758912,5.32324 -17.839385,7.48053 -17.385663,19.27701 0.226354,6.09055 5.728523,9.75605 6.464807,15.63857 0.444245,3.53323 -0.726518,6.82988 -0.693675,10.33596 0.03328,5.74844 3.869942,10.24337 8.744988,12.84672 5.031882,2.68639 11.63609,2.21263 15.976755,-1.65547 3.026739,-2.70403 4.572155,-6.37312 8.980459,-7.06314 3.81865,-0.60332 6.25241,1.5515 9.66379,2.6928 3.40349,1.1537 7.13794,0.7919 10.39096,-0.63763 5.08527,-2.22686 9.17281,-8.61339 9.06495,-14.16398 -0.06,-3.33991 -1.32579,-6.48618 -1.58064,-9.83673 -0.42587,-5.92929 1.76106,-11.96808 -0.8299,-17.59297 -2.52324,-5.51164 -8.11201,-7.32882 -13.19127,-9.69513 -7.18257,-3.3489 -14.946766,-10.65004 -23.292072,-8.47312 z m 52.716042,-11.3171 c 7.6682,-2.18513 11.36727,9.5652 3.71325,11.96079 -7.82481,2.44379 -11.61352,-9.71403 -3.71325,-11.96079 z M 92.723,937.76775 c 7.66812,-2.18514 11.36749,9.56513 3.713253,11.96079 C 88.611439,952.1723 84.822734,940.0145 92.723,937.76775 z m -17.438979,11.44264 c 7.181416,-1.29479 10.426118,9.81729 3.011548,12.13796 -7.825177,2.44386 -11.635872,-9.70911 -3.73539,-11.95593 0.239376,-0.0682 0.492135,-0.14024 0.723842,-0.18199 z m 36.248019,-1.77716 c 7.66798,-2.18509 11.36735,9.56519 3.71325,11.9608 -7.82495,2.44381 -11.6138,-9.71397 -3.71325,-11.9608 z m -17.085737,11.36512 c 7.181637,-1.29484 10.426477,9.81719 3.011547,12.13796 -7.824887,2.44379 -11.613375,-9.71407 -3.713325,-11.96078 0.239882,-0.0684 0.470359,-0.13546 0.701778,-0.17715 z m 58.290047,-8.69863 c -0.25197,0.0516 -0.49633,0.11983 -0.74591,0.18684 -0.53257,0.14304 -1.07245,0.34159 -1.59034,0.5574 -2.32858,0.97033 -4.37532,2.43155 -5.89888,4.44255 -2.5914,3.42003 -4.39485,7.31139 -3.91422,11.69094 1.08432,9.94945 12.49817,16.11706 21.48999,12.17839 2.12479,-0.9256 3.81048,-2.46596 5.2191,-4.27019 2.8673,-3.67283 4.486,-8.08106 3.58847,-12.75352 -1.53725,-7.88684 -10.33816,-13.63219 -18.14821,-12.03244 z m 1.31776,9.06121 c 7.66834,-2.18518 11.36734,9.56518 3.71332,11.96077 -7.82496,2.44382 -11.6133,-9.71408 -3.71332,-11.96077 z m -72.992591,16.36976 c 7.181488,-1.2948 10.42619,9.81727 3.01162,12.13796 -7.825177,2.44386 -11.635873,-9.70912 -3.73539,-11.95594 0.239376,-0.0682 0.492135,-0.14024 0.723842,-0.18199 z m 32.215961,-7.07171 c 7.18127,-1.29477 10.4042,9.82208 2.98941,12.14283 -7.82496,2.4438 -11.61352,-9.71403 -3.71332,-11.96079 0.23966,-0.0683 0.4922,-0.14026 0.72391,-0.18201 z"
         style="fill:#b3b3b3;fill-opacity:1;fill-rule:nonzero;stroke:none" />
      <g
         id="g4621"
         transform="matrix(0.72340797,0,0,0.72340797,-926.94389,652.27931)">
        <path
           sodipodi:nodetypes="csc"
           inkscape:connector-curvature="0"
           id="path4603"
           d="m 1380.4546,243.95553 c 80.9788,-31.53523 172.1894,8.54668 203.7246,89.52547 31.5353,80.97879 -8.5466,172.18942 -89.5254,203.72465"
           style="fill:none;stroke:#000000;stroke-width:36.86559677;stroke-linecap:butt;stroke-linejoin:miter;stroke-miterlimit:4;stroke-opacity:1;stroke-dasharray:none" />
        <path
           style="fill:none;stroke:#000000;stroke-width:7.69085503;stroke-linecap:butt;stroke-linejoin:miter;stroke-miterlimit:4;stroke-opacity:1;stroke-dasharray:none"
           d="m 1376.9526,245.31928 c -80.9788,31.53523 -121.0607,122.74586 -89.5255,203.72464 31.5353,80.97879 122.7459,121.06071 203.7246,89.52548"
           id="path4605"
           inkscape:connector-curvature="0"
           sodipodi:nodetypes="csc" />
      </g>
      <path
         sodipodi:type="arc"
         style="fill:none;stroke:#000000;stroke-width:3.13700008;stroke-miterlimit:4;stroke-opacity:1;stroke-dasharray:none"
         id="path4607"
         sodipodi:cx="-718.97607"
         sodipodi:cy="704.61719"
         sodipodi:rx="7.8286824"
         sodipodi:ry="7.8286824"
         d="m -711.14739,704.61719 c 0,4.32366 -3.50502,7.82868 -7.82868,7.82868 -4.32367,0 -7.82869,-3.50502 -7.82869,-7.82868 0,-4.32366 3.50502,-7.82868 7.82869,-7.82868 4.32366,0 7.82868,3.50502 7.82868,7.82868 z"
         transform="matrix(1.6526567,-0.64358725,0.64358725,1.6526567,731.94265,-691.39678)" />
      <g
         id="g4609"
         transform="matrix(0.52640908,0,0,0.52640908,-413.10708,604.01542)">
        <rect
           style="fill:#f5f7f7;fill-opacity:1;stroke:#bfbfbf;stroke-width:5.86658001;stroke-miterlimit:4;stroke-opacity:1;stroke-dasharray:none;stroke-dashoffset:0"
           id="rect4611"
           width="331.30319"
           height="138.88344"
           x="831.94281"
           y="560.98645"
           ry="0" />
        <text
           sodipodi:linespacing="125%"
           id="text4613"
           y="665.63385"
           x="858.51208"
           style="font-size:98.0663681px;font-style:normal;font-variant:normal;font-weight:normal;font-stretch:normal;line-height:125%;letter-spacing:0px;word-spacing:0px;fill:#000000;fill-opacity:1;stroke:none;font-family:FreeSans;-inkscape-font-specification:FreeSans"
           xml:space="preserve"><tspan
             style="font-style:normal;font-variant:normal;font-weight:normal;font-stretch:normal;font-family:FreeSans;-inkscape-font-specification:FreeSans"
             y="665.63385"
             x="858.51208"
             id="tspan4615"
             sodipodi:role="line">MTCF</tspan></text>
        <rect
           ry="0"
           y="560.98645"
           x="831.94281"
           height="12.248469"
           width="43.242348"
           id="rect4617"
           style="fill:#efefef;fill-opacity:1;stroke:#000000;stroke-width:5.86658001;stroke-miterlimit:4;stroke-opacity:1;stroke-dasharray:none;stroke-dashoffset:0" />
        <rect
           style="fill:#efefef;fill-opacity:1;stroke:#000000;stroke-width:5.86658001;stroke-miterlimit:4;stroke-opacity:1;stroke-dasharray:none;stroke-dashoffset:0"
           id="rect4619"
           width="43.242348"
           height="12.248469"
           x="831.94281"
           y="687.62134"
           ry="0" />
      </g>
    </g>
  </g>
</svg>
