<?xml version="1.0" encoding="UTF-8" standalone="no"?>
<!-- Created with Inkscape (http://www.inkscape.org/) -->

<svg
   xmlns:dc="http://purl.org/dc/elements/1.1/"
   xmlns:cc="http://creativecommons.org/ns#"
   xmlns:rdf="http://www.w3.org/1999/02/22-rdf-syntax-ns#"
   xmlns:svg="http://www.w3.org/2000/svg"
   xmlns="http://www.w3.org/2000/svg"
   xmlns:sodipodi="http://sodipodi.sourceforge.net/DTD/sodipodi-0.dtd"
   xmlns:inkscape="http://www.inkscape.org/namespaces/inkscape"
   width="16"
   height="16"
   id="svg4808"
   version="1.1"
   inkscape:version="0.48.3.1 r9886"
   sodipodi:docname="logo16.svg"
   inkscape:export-filename="/home/carles/Projectes/MTCF/logo16d.png"
   inkscape:export-xdpi="90"
   inkscape:export-ydpi="90">
  <defs
     id="defs4810" />
  <sodipodi:namedview
     id="base"
     pagecolor="#ffffff"
     bordercolor="#666666"
     borderopacity="1.0"
     inkscape:pageopacity="0.0"
     inkscape:pageshadow="2"
     inkscape:zoom="7.9195959"
     inkscape:cx="10.011164"
     inkscape:cy="16.006716"
     inkscape:document-units="px"
     inkscape:current-layer="g3764"
     showgrid="false"
     inkscape:window-width="1920"
     inkscape:window-height="1021"
     inkscape:window-x="0"
     inkscape:window-y="27"
     inkscape:window-maximized="1" />
  <metadata
     id="metadata4813">
    <rdf:RDF>
      <cc:Work
         rdf:about="">
        <dc:format>image/svg+xml</dc:format>
        <dc:type
           rdf:resource="http://purl.org/dc/dcmitype/StillImage" />
        <dc:title></dc:title>
      </cc:Work>
    </rdf:RDF>
  </metadata>
  <g
     inkscape:label="Capa 1"
     inkscape:groupmode="layer"
     id="capa1"
     transform="translate(0,-1036.3622)">
    <g
       id="g4843"
       transform="matrix(0.9559853,0,0,0.9559853,18.428949,38.544588)">
      <g
         id="g3764"
         transform="matrix(0.74348823,0,0,0.74348823,28.853268,238.79543)">
        <path
           style="font-size:medium;font-style:normal;font-variant:normal;font-weight:normal;font-stretch:normal;text-indent:0;text-align:start;text-decoration:none;line-height:normal;letter-spacing:normal;word-spacing:normal;text-transform:none;direction:ltr;block-progression:tb;writing-mode:lr-tb;text-anchor:start;baseline-shift:baseline;color:#000000;fill:#000000;fill-opacity:1;stroke:none;stroke-width:79.92480469;marker:none;visibility:visible;display:inline;overflow:visible;enable-background:accumulate;font-family:Sans;-inkscape-font-specification:Sans"
           d="m -53.895491,1083.5099 c -0.968501,0.017 -1.947596,0.166 -2.910508,0.452 l 1.841741,4.7578 c 2.817249,-0.6408 5.70541,0.8388 6.789326,3.6222 1.087158,2.7917 -0.0459,5.8493 -2.570066,7.2776 l 1.841741,4.7551 c 5.090698,-2.4592 7.539876,-8.522 5.455459,-13.8745 -1.642253,-4.2171 -5.655637,-6.8533 -9.931448,-6.9847 -0.08908,0 -0.175804,0 -0.265098,-0.011 -0.08371,-5e-4 -0.16726,0 -0.251147,0 z m -3.652786,2.6593 c -2.782413,1.2196 -4.676596,3.6851 -5.276867,6.4796 -0.05523,0.016 -0.110065,0.035 -0.16464,0.056 -1.019389,0.397 -1.529925,1.5591 -1.13295,2.5785 0.231605,0.5947 0.722666,1.0154 1.2948,1.1832 0.101561,0.4757 0.24204,0.9499 0.424159,1.4175 1.781353,4.5743 6.855761,6.9136 11.460651,5.3607 l -0.519037,-1.3451 c -3.878288,1.2747 -8.105418,-0.6868 -9.604957,-4.5374 -0.131541,-0.3378 -0.236208,-0.6787 -0.318119,-1.0213 0.910981,-0.4507 1.346635,-1.5361 0.971099,-2.5004 -0.186896,-0.4799 -0.543457,-0.8496 -0.97389,-1.0631 0.537406,-2.2658 2.092052,-4.2512 4.358787,-5.2657 l -0.519036,-1.3423 z"
           id="path4603"
           inkscape:connector-curvature="0" />
        <rect
           style="fill:none;stroke:#000000;stroke-width:0.56277484;stroke-miterlimit:4;stroke-dasharray:none"
           id="rect3817"
           width="9.4878569"
           height="3.4476674"
           x="-58.935383"
           y="1093.1041" />
      </g>
    </g>
  </g>
</svg>
